<svg width="14" height="15" viewBox="0 0 14 15" fill="none" xmlns="http://www.w3.org/2000/svg">
    <circle cx="7" cy="7.5" r="7" fill="white"/>
    <path fill-rule="evenodd" clip-rule="evenodd" d="M9.24484 3.8664L9.24484 6.98369C9.24484 6.9837 9.24484 6.98377 8.96658 6.98377L9.24484 6.98369L9.24482 11.6085C9.24482 11.8639 9.03777 12.071 8.78235 12.071C8.52694 12.071 8.31988 11.8639 8.31988 11.6085L8.31989 6.98377L8.78236 6.98377C8.31989 6.98377 8.31989 6.98379 8.31989 6.98377L8.3199 4.80295C6.62834 4.89065 5.93015 5.45837 5.63008 5.91165C5.45837 6.17105 5.39009 6.43113 5.36499 6.62757C5.35248 6.72549 5.351 6.80547 5.35231 6.8582C5.35296 6.88445 5.35429 6.90358 5.35522 6.91437C5.3556 6.91879 5.35591 6.92178 5.35607 6.92326L5.36003 6.9517L5.36001 9.94357C5.36001 10.199 5.15295 10.406 4.89754 10.406C4.64212 10.406 4.43507 10.199 4.43507 9.94357L4.43509 7.00906C4.43463 7.00427 4.43415 6.99909 4.43367 6.99354C4.43126 6.96543 4.4288 6.92752 4.42765 6.88118C4.42535 6.78873 4.42821 6.66131 4.44751 6.51034C4.48601 6.20901 4.59118 5.80539 4.85882 5.40108C5.41149 4.56622 6.55771 3.86647 8.78236 3.86642L9.24484 3.8664Z" fill="#5C33FF"/>
    <path fill-rule="evenodd" clip-rule="evenodd" d="M3.60303 7.2613C3.60303 7.00588 3.81008 6.79883 4.0655 6.79883H9.61515C9.87057 6.79883 10.0776 7.00588 10.0776 7.2613C10.0776 7.51671 9.87057 7.72377 9.61515 7.72377H4.0655C3.81008 7.72377 3.60303 7.51671 3.60303 7.2613Z" fill="#5C33FF"/>
    <path fill-rule="evenodd" clip-rule="evenodd" d="M3.60716 8.49153C3.60973 8.23613 3.81886 8.03117 4.07426 8.03374L9.62396 8.08964C9.87937 8.09221 10.0843 8.30134 10.0818 8.55675C10.0792 8.81215 9.87005 9.01711 9.61465 9.01454L4.06495 8.95864C3.80955 8.95606 3.60459 8.74693 3.60716 8.49153Z" fill="#5C33FF"/>
</svg>
