<svg width="194" height="120" viewBox="0 0 194 120" fill="none" xmlns="http://www.w3.org/2000/svg">
    <path d="M181.17 101.044C181.17 101.044 161.997 103.519 158.121 101.114C154.244 98.7319 166.948 93.6409 166.948 93.6409L181.17 101.044Z" fill="#E6E6E6"/>
    <path d="M171.687 83.4609C169.282 84.4184 165.732 85.3292 160.968 85.2825C151.113 85.2124 145.952 82.7603 145.952 82.7603L146.699 77.3891L150.249 52.0509C149.408 49.5054 147.236 46.9599 146.022 45.6521C145.789 45.3952 145.859 45.0216 146.116 44.8581C146.186 44.8114 146.302 44.7647 146.396 44.7647H171.15L168.908 52.0275L174.653 77.7628C175.19 80.1448 173.953 82.5502 171.687 83.4609Z" fill="#F5ECDD"/>
    <g opacity="0.66">
        <path d="M171.687 83.4601C169.282 84.4176 165.732 85.3284 160.968 85.2817C151.113 85.2116 145.952 82.7595 145.952 82.7595L146.699 77.3883C147.704 76.4075 148.895 75.4266 150.319 74.5159C162.907 66.3656 161.949 52.9609 161.459 51.0226C161.202 49.995 159.731 48.6873 158.423 47.6597C157.208 46.7256 156.134 46.0483 156.134 46.0483L158.563 44.7639L163.093 42.3819C166.55 42.7322 169.702 43.5262 171.174 44.7639L168.932 52.0268L174.677 77.762C175.19 80.144 173.953 82.5494 171.687 83.4601Z" fill="#EDE8DF"/>
    </g>
    <path d="M171.056 70.3112C170.752 70.3112 170.448 70.1944 170.215 69.9609C169.724 69.4938 169.701 68.7231 170.168 68.2327C173.157 65.1267 178.038 59.4753 178.505 57.5837C179.369 53.8939 179.229 51.5819 175.96 50.7645C172.807 49.9705 171.149 53.2867 170.729 54.3376L171.079 55.9489C171.219 56.6028 170.799 57.2567 170.145 57.4202C169.491 57.5603 168.837 57.14 168.674 56.4861L168.23 54.5244C168.183 54.3142 168.183 54.0807 168.253 53.8705C169.071 51.4651 171.826 47.2149 176.52 48.3825C182.802 49.9472 181.401 55.9022 180.864 58.1441C180.14 61.2501 173.274 68.513 171.92 69.9375C171.686 70.1944 171.383 70.3112 171.056 70.3112Z" fill="#EDE0C7"/>
    <path d="M171.15 44.7646C171.15 44.7646 170.262 45.6053 168.184 46.3993C166.152 47.1699 163 47.8472 158.399 47.637C156.578 47.5436 154.522 47.3334 152.234 46.9131C151.813 46.843 151.393 46.7496 150.949 46.6562L146.349 45.1382C146.209 45.0915 146.139 44.9514 146.139 44.8346C146.139 44.6945 146.232 44.5777 146.372 44.5544C147.4 44.3442 149.128 43.9005 151.65 43.0364C154.125 42.1724 158.819 41.9622 163.093 42.3825C166.526 42.7562 169.702 43.5268 171.15 44.7646Z" fill="#E3CEA8"/>
    <path d="M168.184 46.3989C166.152 47.1695 162.999 47.8468 158.399 47.6366C156.577 47.5432 154.522 47.333 152.233 46.9127C152.233 46.936 156.811 44.4839 168.184 46.3989Z" fill="#FFF9ED"/>
    <path d="M139.086 115.22C131.589 116.247 122.528 116.247 120.917 114.309C119.305 112.371 124.42 108.097 129.441 108.144C134.485 108.167 139.086 115.22 139.086 115.22Z" fill="#E6E6E6"/>
    <path d="M153.214 102.282C148.684 104.593 142.075 105.574 139.086 104.43C136.097 103.309 133.901 92.3331 133.901 92.3331L143.57 88.6666L152.234 94.2013L153.214 102.282Z" fill="#E6E6E6"/>
    <path d="M73.6527 119.96C73.6527 119.96 52.5414 120.403 50.5798 118.325C48.5947 116.223 55.6474 112.604 55.6474 112.604L73.6527 119.96Z" fill="#E6E6E6"/>
    <path d="M36.1236 119.306C36.1236 119.306 23.5596 118.652 20.5937 116.317C17.6279 113.981 33.4146 111.039 33.4146 111.039L36.1236 119.306Z" fill="#E6E6E6"/>
    <path d="M36.9873 106.555C36.9873 106.555 16.2029 105.458 15.6191 102.772C15.0353 100.086 36.5435 99.0356 36.5435 99.0356L36.9873 106.555Z" fill="#E6E6E6"/>
    <path d="M26.7823 88.3399C26.7823 88.3399 4.36325 87.8261 0.813562 86.8453C-2.73612 85.8878 8.61352 81.6842 8.61352 81.6842H26.2919L26.7823 88.3399Z" fill="#E6E6E6"/>
    <path d="M111.764 24.4226H82.0586L85.8652 28.9298L108.681 29.9573L111.764 24.4226Z" fill="#735032"/>
    <path d="M116.248 59.9882C116.225 60.9457 116.178 61.763 116.085 62.4636C115.244 68.5121 111.367 65.1025 108.682 61.8564C108.145 61.2026 107.678 60.572 107.257 60.0115C106.51 59.0074 106.043 58.2601 106.043 58.2601L106.37 44.038L106.72 28.9051L111.718 24.3979C111.718 24.3979 112.885 29.8159 114.03 36.9853C115.221 44.1314 116.342 53.0056 116.248 59.9882Z" fill="#875B33"/>
    <path d="M106.742 28.9292C106.742 28.9292 109.685 44.0854 108.307 59.9889L84.5333 60.8764C84.5333 60.8764 81.8944 42.5675 85.8645 28.9292H106.742Z" fill="#946841"/>
    <path d="M106.744 28.9297L110.387 22.1807H82.0593L79.8174 28.9297C79.8174 28.9297 104.618 29.2333 106.744 28.9297Z" fill="#B37D4E"/>
    <path d="M103.685 54.6877C104.223 50.2039 103.756 46.8177 103.499 42.9878C103.452 42.2171 103.382 41.3997 102.821 40.8626C102.238 40.2788 101.327 40.2554 100.509 40.2788C96.6328 40.3021 92.7328 40.3488 88.8562 40.3722C87.8286 40.3722 86.9412 41.1429 86.7778 42.147C86.5442 43.5249 86.8011 44.9027 86.8011 45.1129C86.8245 49.2698 86.4508 50.3207 87.128 54.4075C87.2915 55.4116 88.1556 56.2991 89.0664 56.9296C89.7436 57.3967 90.5376 57.6536 91.3783 57.7236C94.6011 57.9104 97.3801 58.0506 100.393 57.8637C102.121 57.747 103.522 56.4158 103.685 54.6877Z" fill="#BF8E61"/>
    <g opacity="0.38">
        <path d="M116.246 59.9889C116.223 60.9464 116.176 61.7637 116.083 62.4643L108.68 61.8571L92.613 60.5494C92.613 60.5494 92.1693 53.7302 93.3136 53.9638C94.3645 54.1739 104.196 49.0362 106.391 44.0387C106.555 43.665 106.672 43.2914 106.742 42.8944C106.952 41.7033 107.489 40.7459 108.166 39.9752C109.918 37.9902 112.697 37.2429 114.051 36.9626C115.219 44.1321 116.34 53.0063 116.246 59.9889Z" fill="#946841"/>
    </g>
    <path d="M94.3666 82.0116C94.3666 82.0116 89.299 85.0942 80.238 85.5146C71.1769 85.0942 66.1093 82.0116 66.1093 82.0116C66.1093 82.0116 65.5255 69.3075 65.3853 57.5608C65.2919 49.3639 65.4087 41.6573 66.1093 39.0651C67.7674 32.8532 72.6715 29.3969 73.8392 25.5903C74.6799 22.858 74.9134 17.9538 74.9601 15.4317C74.9835 14.4508 74.9835 13.8203 74.9835 13.8203H85.4924C85.4924 13.8203 85.4924 15.0113 85.5625 16.6928C85.6559 19.355 85.9361 23.255 86.6601 25.5903C87.6643 28.8598 91.0038 31.055 93.3391 36.2627C93.7127 37.1034 94.063 38.0376 94.3666 39.0417C96.4918 46.0477 94.3666 82.0116 94.3666 82.0116Z" fill="#C5EDE2"/>
    <path d="M114.87 40.8391C114.87 40.8391 119.19 37.0325 121.432 36.005L144.062 36.8691L141.82 42.5672L129.466 44.996L114.87 40.8391Z" fill="#C79970"/>
    <path d="M146.163 64.3317C146.116 65.9898 145.462 66.9006 144.505 67.3209C144.037 67.5311 143.5 67.6245 142.917 67.6479C140.931 67.6946 138.503 66.7604 136.891 66.0365C135.887 65.5694 135.21 65.1958 135.21 65.1958L136.891 50.9036L137.919 42.0995L144.014 36.8917C144.014 36.8917 144.621 42.1929 145.182 48.3348C145.766 54.2431 146.279 60.9221 146.163 64.3317Z" fill="#E8AF7B"/>
    <path d="M138.106 63.3048C138.059 64.5425 137.616 65.4299 136.915 66.0371C132.011 70.3108 113.655 61.0629 113.655 61.0629C113.655 61.0629 113.585 55.0378 113.889 49.2462C114.052 46.0001 114.356 42.8241 114.846 40.8391C114.846 40.8391 131.474 42.684 137.943 42.0768C137.943 42.0768 138.106 45.463 138.2 50.1336C138.293 54.0336 138.316 58.821 138.106 63.3048Z" fill="#D4A070"/>
    <path d="M134.205 63.9363C134.836 59.4759 134.462 56.0663 134.299 52.2364C134.275 51.4657 134.205 50.6484 133.668 50.0879C133.108 49.5041 132.197 49.4574 131.379 49.434C127.503 49.3639 123.603 49.3172 119.726 49.2472C118.699 49.2238 117.811 49.9711 117.601 50.9753C117.344 52.3532 117.554 53.731 117.554 53.9412C117.484 58.098 117.087 59.1256 117.648 63.2357C117.788 64.2633 118.629 65.1507 119.539 65.8046C120.217 66.295 121.011 66.5752 121.828 66.6453C125.051 66.9255 127.83 67.1124 130.819 66.9956C132.547 66.9489 133.972 65.6411 134.205 63.9363Z" fill="#E8B687"/>
    <g opacity="0.2">
        <path d="M146.164 64.3325C146.117 65.9906 145.463 66.9014 144.506 67.3217L142.918 67.6487C140.933 67.6954 138.504 66.7613 136.893 66.0373C131.989 70.3109 113.633 61.0631 113.633 61.0631C113.633 61.0631 113.563 55.038 113.866 49.2464C115.735 50.9045 119.798 54.1739 123.161 54.8979C127.692 55.8787 131.405 56.0188 135.211 52.2589C135.725 51.7452 136.309 51.3015 136.893 50.9045C137.313 50.6242 137.757 50.3673 138.177 50.1572C140.816 48.8027 143.665 48.4057 145.183 48.3123C145.767 54.244 146.281 60.923 146.164 64.3325Z" fill="#D4A070"/>
    </g>
    <path d="M137.966 42.0769L142.684 34.9775L121.152 34.1135L114.87 40.8392C114.87 40.8392 132.175 42.941 137.966 42.0769Z" fill="#F2BA88"/>
    <path d="M89.0644 60.4794C89.6015 55.9956 89.1344 52.6094 88.8775 48.7794C88.8308 48.0088 88.7608 47.1914 88.2003 46.6543C87.6165 46.0705 86.7057 46.0471 85.8883 46.0471C82.0117 46.0705 78.1117 46.1172 74.2351 46.1405C73.2076 46.1405 72.3201 46.9112 72.1567 47.9154C71.9231 49.2932 72.18 50.671 72.18 50.8812C72.2034 55.0381 71.8297 56.089 72.507 60.1758C72.6704 61.18 73.5345 62.0674 74.4453 62.6979C75.1225 63.165 75.9165 63.4219 76.7572 63.4919C79.98 63.6788 82.759 63.8189 85.7716 63.6321C87.4997 63.5387 88.8775 62.2075 89.0644 60.4794Z" fill="#E3FFF7"/>
    <g opacity="0.43">
        <path d="M94.3661 82.0107C94.3661 82.0107 89.2984 85.0934 80.2374 85.5137C71.1764 85.0934 66.1087 82.0107 66.1087 82.0107C66.1087 82.0107 65.5249 69.3066 65.3848 57.56C66.3422 57.0228 67.4165 56.7893 68.6309 56.9995C76.2206 58.2839 85.5853 54.8977 88.6445 51.0211C92.0074 46.7708 90.9098 43.9217 91.3769 40.372C91.6104 38.5972 92.4745 37.2894 93.3385 36.2852C93.7122 37.1259 94.0625 38.0601 94.3661 39.0642C96.4912 46.0468 94.3661 82.0107 94.3661 82.0107Z" fill="#C5EDE2"/>
    </g>
    <path d="M66.014 117.25L57.7002 114.284L54.1739 113.046L53.3799 105.246L72.7397 111.342L73.6504 119.959L66.014 117.25Z" fill="#8FC9B9"/>
    <path d="M36.9876 61.2273C36.9876 61.2273 33.5313 88.5038 26.8056 88.3403C20.0799 88.1535 8.63685 81.6847 8.63685 81.6847C8.63685 81.6847 7.65601 69.0272 8.91708 49.6674C9.80451 35.7256 13.074 15.6886 14.3584 8.21556C14.5218 7.25808 14.9656 6.41736 15.6194 5.76347C16.2033 5.17964 16.9272 4.73593 17.7679 4.52576L19.7997 3.98863L21.4577 3.54492L30.4487 7.51496L30.729 9.73351L30.8924 11.0413L36.9876 61.2273Z" fill="#E3AC64"/>
    <path d="M65.3137 5.27238L63.5389 9.94302C63.5389 9.94302 39.6719 13.0256 30.8678 11.064C29.6534 10.8071 28.7426 10.4334 28.1822 9.94302C25.4732 7.53764 19.7517 6.34663 15.6182 5.7628C16.202 5.17897 16.9259 4.73526 17.7667 4.52508L19.7984 3.98796C20.5457 3.84784 21.1529 3.68437 21.4565 3.54425C23.0211 2.84365 49.7839 -0.589265 54.4545 0.0879777C59.0784 0.76522 65.3137 5.27238 65.3137 5.27238Z" fill="#FCCB8B"/>
    <path d="M65.3162 5.27289C66.5305 10.2705 71.5515 54.5948 70.4772 81.918C70.4772 81.918 47.1941 89.7413 26.8068 88.3401C26.8068 88.3401 26.6433 26.6878 28.1846 9.94352C28.1846 9.94352 54.0833 7.86509 58.7539 7.00102C63.4012 6.13696 65.3162 5.27289 65.3162 5.27289Z" fill="#E8BD84"/>
    <path d="M47.4489 65.5953C47.3555 66.7396 46.4214 67.6037 45.2771 67.6037H38.855C37.6873 67.6037 36.7065 66.6695 36.6831 65.4785C36.6598 64.3109 36.5897 62.7695 36.4963 61.1115C36.4963 61.0414 36.4963 60.9713 36.4729 60.9013C36.4029 59.8504 37.2202 58.9863 38.2945 58.9863H45.3705C46.5382 58.9863 47.4956 59.9438 47.4956 61.1115C47.4956 62.3258 47.5891 63.9372 47.4489 65.5953Z" fill="#C7934E"/>
    <path d="M54.7586 89.1345C54.3382 89.5783 54.058 89.8585 54.058 89.8585L51.6526 86.8459C51.6526 86.8459 52.2598 86.3789 52.937 85.8184C53.731 85.1645 54.5951 84.3705 54.5951 84.0903C54.5951 83.5765 51.1388 74.422 50.3682 73.9083C49.9478 73.628 48.3832 73.4179 46.982 73.2544C46.5616 73.2077 46.1646 73.161 45.8143 73.1376C45.1604 73.0676 44.6934 73.0442 44.6934 73.0442L45.6508 70.1951C45.6508 70.1951 47.3323 70.1718 49.1071 70.452C50.2981 70.6388 51.5358 70.9891 52.3065 71.573C54.1981 73.0442 57.5843 83.9968 57.7478 85.0477C57.8178 85.7717 55.8562 87.9902 54.7586 89.1345Z" fill="#D4E0E6"/>
    <path d="M42.5901 105.061C39.2505 105.061 36.3548 104.618 34.7901 104.337C32.8518 102.983 31.3572 101.138 30.423 98.9895C29.7458 97.4015 29.3955 95.72 29.3955 93.9919C29.3955 90.2554 31.0302 86.7524 33.8793 84.3237L33.926 84.277L33.9727 84.2303C34.1362 84.0435 38.0595 79.7465 39.017 74.6788C39.5541 71.8064 39.4841 69.8447 39.3206 68.7238C39.3206 68.6771 39.3206 68.6537 39.2973 68.607H44.6918C44.6918 68.6537 44.6918 68.6771 44.6685 68.7238C44.5984 69.1441 44.5751 69.6112 44.5517 70.125V70.1483C44.5284 71.0824 44.5984 72.11 44.7385 73.2309C44.7853 73.6746 44.8787 74.1417 44.9721 74.6788C45.8829 79.5363 49.5259 83.6932 49.9697 84.1836L49.993 84.2069L50.0864 84.3003L50.1098 84.3237C50.8337 84.9309 51.511 85.6315 52.0714 86.4021C52.772 87.3596 53.3559 88.3871 53.7762 89.4847C54.3133 90.9093 54.5936 92.4272 54.5936 93.9685C54.5936 94.6691 54.5235 95.3931 54.4068 96.0703C53.8463 99.4332 51.908 102.469 49.0589 104.407C47.1206 104.851 44.9254 105.061 42.5901 105.061Z" fill="#FFD35C"/>
    <path d="M55.459 96.2567C54.8284 100.063 52.6099 103.333 49.5273 105.364C43.4087 106.742 36.9633 105.785 34.3944 105.294C32.2459 103.846 30.5411 101.791 29.4902 99.386C29.5836 99.386 29.6771 99.386 29.7938 99.386C32.2459 99.4327 36.1926 101.628 38.6213 101.348C41.0501 101.067 44.3662 98.4752 46.4213 96.5369C48.1494 94.8789 52.7266 95.2759 55.459 96.2567Z" fill="#F7CB54"/>
    <path d="M54.7571 89.1347C54.3134 87.9436 53.6828 86.8227 52.9122 85.7952C52.2817 84.9778 51.5811 84.2071 50.787 83.5532C50.787 83.5532 50.787 83.5533 50.787 83.5299C50.5535 83.273 46.8871 79.2096 45.9996 74.4922C45.9062 74.0018 45.8362 73.5347 45.7661 73.091C45.6026 71.9 45.5559 70.9425 45.5793 70.1485C45.6026 69.6348 45.626 69.2144 45.6727 68.8641C45.7895 68 45.9763 67.603 45.9763 67.603H37.9662C37.9662 67.603 38.153 68 38.2697 68.8641C38.4099 69.9617 38.4799 71.7832 37.9662 74.4922C37.0787 79.2329 33.4123 83.2964 33.1788 83.5299C30.2129 86.0287 28.3213 89.7885 28.3213 93.9688C28.3213 95.8837 28.7183 97.7053 29.4422 99.3633C30.4698 101.769 32.1979 103.824 34.3464 105.272C36.9153 105.762 43.3607 106.72 49.4793 105.342C52.5619 103.287 54.7804 100.041 55.411 96.234C55.5277 95.4867 55.5978 94.7394 55.5978 93.9688C55.6445 92.2873 55.3409 90.6526 54.7571 89.1347ZM54.4535 96.0939C53.893 99.4568 51.9547 102.493 49.1056 104.431C47.1206 104.851 44.9254 105.085 42.5901 105.085C39.2506 105.085 36.3314 104.641 34.7901 104.361C32.8518 103.006 31.3572 101.162 30.4231 99.0131C29.7458 97.425 29.3955 95.7436 29.3955 94.0155C29.3955 90.279 31.0303 86.7526 33.8793 84.3473L33.9261 84.3005L33.9728 84.2538C34.1362 84.067 38.0596 79.77 39.017 74.7024C39.5542 71.83 39.4841 69.8683 39.3206 68.7473C39.3206 68.7006 39.3206 68.6773 39.2973 68.6306H44.6919C44.6919 68.6539 44.6919 68.7006 44.6685 68.7473C44.5985 69.1677 44.5751 69.6348 44.5517 70.1485V70.1719C44.5284 71.106 44.5985 72.1335 44.7386 73.2545C44.8086 73.6982 44.8787 74.1653 44.9721 74.7024C45.8829 79.5599 49.526 83.7167 49.9697 84.2071L49.993 84.2305L50.0865 84.3239L50.1098 84.3473C50.8338 84.9544 51.511 85.655 52.0715 86.4257C52.7721 87.3832 53.3559 88.4107 53.7763 89.5083C54.3134 90.9328 54.5936 92.4508 54.5936 93.9921C54.617 94.6927 54.5703 95.4167 54.4535 96.0939Z" fill="#D4E0E6"/>
    <path d="M45.3252 84.3245C45.4654 85.749 46.6097 86.8233 47.1701 88.1077C47.6839 89.2754 48.0809 90.6999 48.151 91.961C48.1977 93.222 47.9642 94.4364 47.427 95.5807C46.7264 97.0053 45.5588 97.9627 44.6247 99.2238C43.5037 100.742 45.372 103.1 47.1234 102.47C51.0468 101.022 53.1953 95.8843 53.0318 91.961C52.9384 89.8358 52.3078 87.8742 51.0234 86.1927C49.9258 84.7682 48.1276 82.8532 46.1426 83.2736C45.6989 83.367 45.2785 83.8808 45.3252 84.3245Z" fill="#FFDB78"/>
    <path d="M47.45 65.5953C47.3566 66.7396 46.4225 67.6037 45.2781 67.6037H44.741C44.7877 65.6887 44.6476 63.0264 43.7368 61.5318C42.6392 59.7336 38.6458 60.5276 36.5207 61.1115C36.5207 61.0414 36.5207 60.9713 36.4974 60.9013C36.4273 59.8504 37.2447 58.9863 38.3189 58.9863H45.3949C46.5626 58.9863 47.5201 59.9438 47.5201 61.1115C47.4967 62.3258 47.5901 63.9372 47.45 65.5953Z" fill="#C28433"/>
    <path d="M46.9567 73.231C46.5363 73.1843 46.1393 73.1376 45.789 73.1143C45.8358 73.558 45.9292 74.0017 46.0226 74.5155H38.0124C38.5262 71.8065 38.4561 69.985 38.316 68.8874L37.4753 68.2101C37.2418 68.0233 37.3819 67.6263 37.6855 67.6263H46.6531C46.9801 67.6263 47.0968 68.07 46.8166 68.2335L45.719 68.8874C45.6723 69.2376 45.6256 69.658 45.6256 70.1718C45.6256 70.1718 47.307 70.1484 49.0818 70.4287L46.9567 73.231Z" fill="#D4E0E6"/>
    <path d="M40.069 69.7763C39.8121 70.9674 39.9055 72.2518 39.7654 73.4662C39.6253 74.7506 39.3217 76.035 38.948 77.2727C38.2007 79.7482 37.0564 82.1068 35.5618 84.232C34.5343 85.6565 36.9396 87.0811 37.9205 85.6098C39.5318 83.2044 40.6761 80.5422 41.1432 77.6931C41.3767 76.2919 41.4468 74.8907 41.4001 73.4662C41.3534 72.2051 41.2833 70.8272 40.7229 69.7063C40.5827 69.4261 40.139 69.4728 40.069 69.7763Z" fill="#FFEDBD"/>
    <path d="M51.4891 57.6534C50.7885 58.1906 49.8544 58.3073 49.037 57.957C44.1562 55.8085 33.3904 52.0487 32.7131 40.5356C31.9425 27.8548 45.1137 31.1009 48.243 34.5104C49.8777 36.2853 52.0496 30.3069 56.837 30.7272C60.5735 31.0542 65.2441 35.4913 63.4459 42.9643C61.998 48.9661 54.4549 55.3415 51.4891 57.6534Z" fill="#FFE9CC"/>
    <path d="M51.586 47.6575L52.3801 48.8718L53.5944 48.0778C54.4351 47.5174 54.7854 45.8826 54.225 45.0186L53.4309 43.8042L52.2166 44.5982C51.3992 45.1587 51.0489 46.8168 51.586 47.6575Z" fill="#F5B651"/>
    <path d="M49.1539 44.4138L50.1113 45.488L51.1856 44.5306C51.9329 43.8533 52.0497 42.1719 51.3724 41.4246L50.4149 40.3503L49.3407 41.3078C48.5934 41.9851 48.4766 43.6665 49.1539 44.4138Z" fill="#F5B651"/>
    <path d="M46.2136 41.6333L47.2645 42.6141L48.2453 41.5632C48.9226 40.8159 48.8525 39.1345 48.1052 38.4573L47.0543 37.4764L46.0735 38.5273C45.3963 39.2513 45.4663 40.9561 46.2136 41.6333Z" fill="#F5B651"/>
    <path d="M43.7846 41.0028L45.2091 40.8394L45.0457 39.4148C44.9289 38.4106 43.6211 37.3597 42.6169 37.4765L41.1924 37.64L41.3559 39.0645C41.4726 40.0454 42.8038 41.1196 43.7846 41.0028Z" fill="#F5B651"/>
    <path d="M46.351 43.6415L47.2852 42.5439L46.1876 41.6097C45.4169 40.9559 43.7355 41.096 43.0816 41.8666L42.1475 42.9642L43.2451 43.8984C44.0157 44.5522 45.6971 44.4121 46.351 43.6415Z" fill="#F5B651"/>
    <path d="M49.039 46.4695L50.1133 45.512L49.1558 44.4378C48.4786 43.6905 46.7971 43.597 46.0498 44.2509L44.9756 45.2084L45.9331 46.2827C46.587 47.0533 48.2684 47.1467 49.039 46.4695Z" fill="#F5B651"/>
    <path d="M51.2109 49.62L52.4252 48.8494L51.6546 47.635C51.1175 46.7943 49.4594 46.4206 48.6187 46.9811L47.4043 47.7518L48.175 48.9661C48.7121 49.8068 50.3468 50.1805 51.2109 49.62Z" fill="#F5B651"/>
    <path d="M53.8707 52.3518C53.7539 52.3518 53.6372 52.2818 53.6138 52.165C53.5905 52.095 51.4186 45.2291 43.8522 40.2783C43.7354 40.1848 43.6887 40.0214 43.7821 39.9046C43.8755 39.7878 44.039 39.7411 44.1558 39.8345C51.8857 44.9022 54.1276 51.9548 54.1509 52.0249C54.1976 52.165 54.1042 52.3285 53.9641 52.3752C53.9174 52.3518 53.894 52.3518 53.8707 52.3518Z" fill="#F5B651"/>
    <path d="M15.9929 80.7023C16.1797 76.779 15.7127 72.809 15.5959 68.8856C15.4791 64.9389 15.4558 60.9922 15.5258 57.0456C15.6893 49.1522 16.1797 41.2822 17.0204 33.4355C17.4408 29.4187 17.8845 25.0751 19.7528 21.432C19.8695 21.1984 19.5192 20.9883 19.3791 21.2218C17.6977 24.211 16.9037 27.4804 16.46 30.8666C15.9462 34.86 15.5025 38.8768 15.1989 42.8935C14.5684 50.9737 14.4049 59.1006 14.6384 67.2042C14.7785 71.688 14.7318 76.382 15.666 80.7957C15.736 80.9359 15.9929 80.8892 15.9929 80.7023Z" fill="#C99859"/>
    <path d="M66.9492 16.9488C66.1552 10.5267 69.1911 5.99614 69.4013 5.24884C69.6115 4.50154 67.7432 1.90934 66.8325 1.60575C65.8983 1.2788 24.5866 4.36142 24.0961 4.50154C23.6057 4.66501 28.3464 8.05122 28.2063 9.91948C28.0662 11.7644 29.5141 16.9488 29.5141 16.9488H66.9492Z" fill="#E8BD84"/>
    <path d="M67.0197 1.60537C67.0197 1.60537 57.982 0.134116 54.4324 0.0640564C50.8827 0.0173501 22.6954 0.928124 16.5302 4.96822C10.7152 8.79814 43.1761 7.65384 47.1462 7.49037C47.4031 7.49037 47.6599 7.46701 47.9168 7.44366L68.6544 5.45864C69.4251 5.38858 69.7754 4.4311 69.2383 3.87062L67.0197 1.60537Z" fill="#F7CA8D"/>
    <path d="M27.3181 28.9286C28.369 18.5831 39.8354 15.9909 49.0599 15.0101C58.3078 14.0526 61.5305 11.2502 61.5305 11.2502C61.5305 11.2502 35.9121 13.2119 28.1822 9.91907C20.4289 6.64963 15.6182 5.76221 15.6182 5.76221L27.3181 28.9286Z" fill="#E3AC64"/>
    <path d="M28.183 9.91962C28.183 9.91962 26.992 6.43999 24.0728 4.50168C21.1537 2.56336 16.4597 4.52503 15.619 5.7394C14.7549 6.97712 18.5615 14.2166 28.183 9.91962Z" fill="#E3AC64"/>
    <path d="M58.752 66.9254C58.752 66.9254 58.8921 68.8637 59.5927 71.923C64.31 92.3103 82.6189 106.649 103.543 106.649H109.989C123.767 106.649 136.401 100.437 144.785 90.372C149.129 85.1409 152.328 78.8822 153.94 71.923C154.64 68.8637 154.78 66.9254 154.78 66.9254H58.752Z" fill="#C2C9CC"/>
    <path d="M81.6614 20.0319C81.6381 22.3672 81.6381 24.6792 81.7081 27.0145C81.7548 28.4858 84.0668 28.4858 83.9967 27.0145C83.8566 24.6792 83.6698 22.3439 83.4363 20.0319C83.3195 18.911 81.6848 18.8642 81.6614 20.0319Z" fill="#E8FFF9"/>
    <path d="M83.1553 32.2004C82.7349 33.3681 83.5289 34.886 83.8325 36.0303C84.1828 37.4082 84.3697 38.7159 84.4631 40.1405C84.6499 42.6626 88.3631 42.7327 88.4331 40.1405C88.4798 38.3189 88.0361 36.4273 87.2421 34.7926C86.6349 33.5315 85.4906 31.6166 83.9026 31.6399C83.5289 31.6399 83.2721 31.8735 83.1553 32.2004Z" fill="#E8FFF9"/>
    <path d="M85.5623 16.6928C82.5264 15.3149 76.5013 15.385 74.96 15.4317C74.9833 14.4508 74.9833 13.8203 74.9833 13.8203H85.4922C85.4922 13.8203 85.4922 15.0113 85.5623 16.6928Z" fill="#AFE0D3"/>
    <path d="M86.6112 13.4925C86.5879 14.1698 85.9807 14.6835 85.3034 14.6135C83.9022 14.45 81.6136 14.1931 80.2358 14.1931C78.858 14.1931 76.5927 14.45 75.1682 14.6135C74.7478 14.6602 74.3508 14.4967 74.1173 14.1931C73.9538 14.0063 73.8604 13.7728 73.8604 13.4925C73.8137 12.5117 73.7903 11.2273 73.9304 10.6201C74.164 9.59254 80.2358 9.35901 80.2358 9.35901C80.2358 9.35901 82.2909 9.42907 84.0424 9.70931C85.3034 9.89613 86.4477 10.1997 86.5412 10.6201C86.6813 11.2273 86.6579 12.5117 86.6112 13.4925Z" fill="#9DDECC"/>
    <path d="M86.6141 13.4927C86.5907 14.17 85.9835 14.6838 85.3063 14.6137C83.9051 14.4502 81.6165 14.1933 80.2387 14.1933C78.8608 14.1933 76.5956 14.4502 75.171 14.6137C74.7507 14.6604 74.3536 14.4969 74.1201 14.1933C74.9375 13.6796 76.1285 12.4185 78.2536 12.3017C79.5848 12.2317 82.3171 12.7922 83.3446 11.9981C84.3955 11.1808 84.0219 9.70953 84.0219 9.70953C85.2829 9.89636 86.4272 10.2 86.5207 10.6203C86.6841 11.2275 86.6608 12.5119 86.6141 13.4927Z" fill="#7CD6BE"/>
    <g opacity="0.44">
        <path d="M58.752 66.9254C58.752 66.9254 58.8921 68.8637 59.5927 71.923C64.31 92.3103 82.6189 106.649 103.543 106.649H109.989C123.767 106.649 136.401 100.437 144.785 90.372C113.095 102.352 87.6632 86.9858 81.9417 80.7271C77.598 75.9631 74.3285 70.9188 72.4136 66.9254H58.752Z" fill="#C2C9CC"/>
    </g>
    <path d="M58.752 66.9251C58.752 67.2988 58.8454 67.6958 59.0555 68.0461C61.7645 72.9969 82.0818 76.8502 106.766 76.8502C131.427 76.8502 151.768 72.9969 154.477 68.0461C154.687 67.6724 154.78 67.2988 154.78 66.9251C154.78 61.4371 133.295 57 106.766 57C80.2369 57 58.752 61.4371 58.752 66.9251Z" fill="#B1B8BD"/>
    <path d="M59.0566 68.0456C61.7656 72.9965 82.0829 76.8498 106.767 76.8498C131.428 76.8498 151.769 72.9965 154.478 68.0456C151.769 63.0947 131.451 59.2415 106.767 59.2415C82.0829 59.2415 61.7656 63.0947 59.0566 68.0456Z" fill="#878E91"/>
    <path d="M73.651 119.96L72.7402 111.343L91.3761 99.3861V108.19L73.651 119.96Z" fill="#8FC9B9"/>
    <path d="M53.3799 105.271L73.6504 94.2012L91.3755 99.3856L72.7397 111.342L53.3799 105.271Z" fill="#9DDECC"/>
    <path d="M73.6521 119.96L66.0156 117.251L72.7413 111.342L73.6521 119.96Z" fill="#82B8A9"/>
    <path d="M57.7002 114.284L54.1739 113.046L53.3799 105.246L57.7002 114.284Z" fill="#82B8A9"/>
    <path d="M136.776 76.5692C136.543 76.5926 132.246 77.1997 130.961 77.4099C126.991 78.0405 123.232 77.8303 120.873 78.1339C118.561 78.4375 116.272 79.9788 116.389 82.6177C116.506 85.3033 118.374 86.7746 120.873 87.1015C122.671 87.335 124.703 87.0548 126.524 86.8446C128.72 86.5877 130.891 86.144 133.04 85.5835C135.025 85.0698 137.033 84.3225 138.831 83.365C144.973 80.0955 143.175 77.6201 143.105 77.5267C142.498 76.7327 140.887 76.0788 136.776 76.5692Z" fill="#E2EAED"/>
    <path d="M49.6679 107.956C49.6679 108.026 49.6445 108.073 49.6445 108.166C48.3834 114.705 43.4793 119.306 37.8511 119.306H36.123C32.8069 119.306 29.7242 117.694 27.5057 115.009C25.9877 113.164 24.8668 110.828 24.353 108.166C24.3297 108.073 24.3297 108.003 24.3063 107.956C24.3063 107.886 24.2829 107.816 24.2829 107.769C24.1895 107.232 24.2596 107.302 24.2596 107.302L24.6566 107.279L37.0104 106.578L48.5002 107.255L49.2008 107.302C49.2008 107.302 49.3176 107.279 49.4343 107.325C49.5277 107.372 49.6445 107.465 49.6912 107.676C49.6679 107.746 49.6679 107.839 49.6679 107.956Z" fill="#F5ECDD"/>
    <g opacity="0.41">
        <path d="M49.7371 107.818C49.7138 107.864 49.6904 107.911 49.6671 107.958C49.6671 108.028 49.6437 108.074 49.6437 108.168C48.3826 114.707 43.4785 119.307 37.8503 119.307H36.1222C32.8061 119.307 29.7234 117.696 27.5049 115.01C30.8444 116.131 35.4216 116.411 39.3216 115.664C42.6611 115.034 45.5102 111.694 46.9347 109.756C47.5419 108.915 47.8922 108.331 47.8922 108.331L48.4994 107.21L48.7563 106.72C49.0132 106.907 49.2467 107.094 49.4102 107.28C49.5036 107.327 49.6203 107.421 49.6671 107.631C49.6904 107.724 49.7138 107.771 49.7371 107.818Z" fill="#DED6C8"/>
    </g>
    <path d="M49.8543 107.28C49.8543 107.467 49.8076 107.63 49.7376 107.817C48.8735 109.732 43.5023 111.18 36.9867 111.18C30.4712 111.18 25.1 109.709 24.2359 107.817C24.1658 107.63 24.1191 107.467 24.1191 107.28C24.1191 105.132 29.8874 103.38 36.9867 103.38C44.0861 103.38 49.8543 105.132 49.8543 107.28Z" fill="#EDDAB9"/>
    <path d="M49.7389 107.817C49.7155 107.863 49.6922 107.91 49.6688 107.957C49.2952 108.587 48.4078 109.195 47.1467 109.685C47.0766 109.708 47.0066 109.732 46.9132 109.778C44.5545 110.642 40.9815 111.203 36.9881 111.203C32.948 111.203 29.3516 110.642 26.9929 109.755C25.6151 109.241 24.6576 108.634 24.2839 107.957C24.2606 107.91 24.2372 107.887 24.2139 107.84C24.2139 107.817 24.2372 107.793 24.2372 107.77C24.3306 107.607 24.4474 107.443 24.5875 107.28C26.1522 105.645 31.1031 104.477 36.9414 104.477C42.1725 104.477 46.703 105.435 48.7114 106.789C48.9682 106.976 49.2018 107.163 49.3652 107.35C49.4587 107.466 49.5521 107.583 49.6221 107.7C49.6922 107.723 49.7155 107.77 49.7389 107.817Z" fill="#E3CEA8"/>
    <path d="M47.145 109.686C44.7863 110.596 41.1199 111.18 36.9864 111.18C32.9463 111.18 29.3499 110.62 26.9912 109.732C27.2714 109.522 27.6451 109.265 28.0888 109.008C30.681 107.444 35.5618 105.179 36.9864 105.038C37.9439 104.945 39.9756 105.739 42.0307 106.743C44.0157 107.747 46.0241 108.915 47.145 109.686Z" fill="#E34242"/>
    <g opacity="0.72">
        <path d="M47.145 109.685C44.7863 110.596 41.1199 111.18 36.9864 111.18C32.9463 111.18 29.3499 110.619 26.9912 109.732C27.2714 109.522 27.6451 109.265 28.0888 109.008C33.6469 111.413 39.5786 109.638 40.8163 108.704C41.5636 108.144 41.9139 107.373 42.0307 106.742C44.0157 107.747 46.0241 108.914 47.145 109.685Z" fill="#E34242"/>
    </g>
    <path d="M128.74 112.02C122.201 104.99 123.252 98.5681 127.035 95.9992C127.245 95.8591 127.479 95.719 127.689 95.6022C130.398 94.1777 137.077 94.8783 141.514 100.6C142.425 101.767 143.242 103.145 143.919 104.757C147.913 114.261 135.652 119.446 128.74 112.02Z" fill="#F0B86C"/>
    <g opacity="0.39">
        <path d="M128.74 112.019C122.201 104.99 123.252 98.5679 127.035 95.999C127.152 98.4978 127.922 105.037 133.644 106.158C139.412 107.279 142.285 104.453 141.537 100.6C142.448 101.767 143.265 103.145 143.943 104.756C147.913 114.261 135.652 119.446 128.74 112.019Z" fill="#F0B86C"/>
    </g>
    <path d="M162.113 91.4229C162.02 92.7307 161.693 93.9918 161.156 95.1361C157.489 103.146 144.715 106.953 142.59 96.981C141.095 89.905 145.509 84.3469 150.227 81.6847C153.122 80.0499 156.135 79.5362 157.956 80.4002C162.277 82.502 162.277 88.8307 162.113 91.4229Z" fill="#F0B86C"/>
    <g opacity="0.39">
        <path d="M161.156 95.1356C157.489 103.146 144.715 106.952 142.59 96.9805C141.095 89.9045 145.509 84.3465 150.227 81.6842C149.549 82.7585 149.152 85.3039 150.577 89.9045C152.025 94.5752 158.307 95.556 161.156 95.1356Z" fill="#F0B86C"/>
    </g>
    <path d="M130.448 99.246C131.195 99.97 132.27 100.087 133.204 100.53C133.998 100.904 134.675 101.418 135.399 101.932C136.31 102.586 137.711 102.165 138.341 101.348C139.042 100.39 138.925 99.246 138.155 98.3586C136.613 96.5604 132.363 94.9023 130.448 96.9808C129.888 97.6347 129.817 98.6388 130.448 99.246Z" fill="#F7C888"/>
    <path d="M152.444 83.4362C152.981 84.0901 153.845 84.1835 154.569 84.5338C155.409 84.9074 155.923 85.5146 156.67 86.0284C158.329 87.1727 160.057 85.0008 159.263 83.4362C158.656 82.2685 157.138 81.3577 155.876 81.1008C154.662 80.844 152.911 80.8206 152.28 82.1284C152.047 82.5955 152.117 83.0392 152.444 83.4362Z" fill="#F7C888"/>
    <path d="M192.402 83.9267C185.91 103.497 188.152 96.6308 187.661 98.1488H166.247C166.153 97.8452 165.079 94.6225 161.506 83.9267C161.95 84.5572 162.93 85.0009 163.654 85.2812C169.212 87.383 182.103 87.5464 188.596 85.795C189.716 85.4914 191.772 84.8608 192.402 83.9267Z" fill="#C5EDE2"/>
    <path d="M187.709 98.1711C187.709 98.4513 187.592 98.7082 187.358 98.9651C186.167 100.32 181.964 101.324 176.966 101.324C171.034 101.324 166.224 99.9226 166.224 98.1711C166.224 98.1478 166.224 98.1244 166.224 98.1011C166.317 96.7466 169.353 95.6023 173.533 95.1819C174.607 95.0651 175.752 95.0184 176.966 95.0184C182.804 95.0184 187.568 96.3729 187.709 98.0777C187.709 98.1011 187.709 98.1244 187.709 98.1711Z" fill="#C5EDE2"/>
    <path d="M161.342 83.3655L161.529 83.926C161.389 83.7391 161.342 83.5523 161.342 83.3655Z" fill="#F5F2DA"/>
    <g opacity="0.43">
        <path d="M187.358 98.9423C186.167 100.297 181.964 101.301 176.966 101.301C171.034 101.301 166.224 99.8998 166.224 98.1483C166.224 98.1249 166.224 98.1016 166.224 98.0782L162.651 87.3124C161.016 86.6585 160.292 86.0981 160.292 86.0981L161.343 83.3424C161.343 82.3382 163.118 81.4274 165.99 80.7502C166.084 81.4508 166.247 82.2915 166.434 83.249C166.457 83.2957 166.457 83.3424 166.457 83.3891C166.621 84.1598 166.854 84.9771 167.111 85.8178C167.158 85.9346 167.181 86.0514 167.228 86.1915C167.508 87.0555 167.858 87.9663 168.279 88.8304C169.423 91.3058 171.105 93.6645 173.533 95.1591C175.985 96.6537 178.764 97.5878 181.38 98.1483C183.622 98.6387 185.724 98.8489 187.358 98.9423Z" fill="#C5EDE2"/>
    </g>
    <path d="M192.59 83.3648C192.59 84.4624 190.535 85.2097 189.484 85.5366C183.202 87.4516 171.245 87.4516 164.893 85.6767C159.592 84.1588 160.386 82.057 165.967 80.7725C174.865 78.7408 190.395 79.8151 192.38 82.8043C192.52 82.9678 192.59 83.1312 192.59 83.3648Z" fill="#A7D4C8"/>
    <path d="M193.874 85.5145C193.337 85.9582 192.543 86.5187 191.352 87.0792C188.713 88.3403 184.159 89.6013 176.149 89.5079C173.019 89.4846 170.404 89.2043 168.279 88.8307C165.757 88.387 163.912 87.8265 162.651 87.3127C161.016 86.6588 160.292 86.0984 160.292 86.0984L161.343 83.3427L166.457 83.2493L167.088 83.2259L185.28 82.899L192.403 82.7589L192.519 82.969L193.874 85.5145Z" fill="#A7D4C8"/>
    <path d="M176.966 82.2676C183.365 82.2676 188.713 83.2951 190.161 84.673C188.082 85.8873 182.968 86.7514 176.966 86.7514C170.964 86.7514 165.827 85.8873 163.771 84.673C165.196 83.2951 170.567 82.2676 176.966 82.2676Z" fill="#F5F2DA"/>
    <path d="M172.926 80.797C171.127 80.003 168.325 80.7269 166.504 81.2641C165.616 81.5209 165.99 82.8754 166.877 82.6419C167.905 82.3617 168.932 82.1281 169.96 81.988C170.894 81.8479 171.945 81.9179 172.809 81.5676C173.112 81.4275 173.276 80.9605 172.926 80.797Z" fill="#C9F2E7"/>
    <path d="M176.334 80.352C175.75 80.0951 174.956 80.1185 174.325 80.282C173.625 80.4688 173.742 81.6365 174.512 81.5897C174.839 81.5664 175.143 81.4963 175.47 81.4496C175.773 81.4029 176.054 81.3562 176.334 81.1927C176.614 81.0059 176.661 80.4921 176.334 80.352Z" fill="#C9F2E7"/>
    <path d="M182.57 84.2304C182.173 83.4831 181.192 83.2496 180.444 83.0627C179.394 82.7825 178.319 82.6891 177.245 82.6891C176.171 82.6891 172.014 82.5723 171.967 84.3472C171.921 86.0052 175.68 85.5148 176.615 85.4915C177.712 85.4448 178.81 85.4214 179.931 85.3046C180.771 85.2112 181.939 85.1645 182.546 84.4873C182.593 84.3939 182.616 84.3004 182.57 84.2304Z" fill="#FFFCE3"/>
</svg>
