<svg width="144" height="140" viewBox="0 0 144 140" fill="none" xmlns="http://www.w3.org/2000/svg">
    <path d="M63.4759 14.1885C56.9218 26.3475 19.1672 9.27539 8.88151 23.8581C-1.20219 38.1531 15.2589 50.2313 8.35132 82.8607C4.63999 100.407 -2.15654 106.517 1.98904 117.323C6.26591 128.467 18.9501 136.188 30.3466 138.894C53.8517 144.469 64.0869 126.841 90.5055 132.946C99.5945 135.047 102.69 138.127 112.238 138.152C114.632 138.157 135.137 138.576 141.656 128.482C147.226 119.858 137.309 111.754 132.683 93.2373C124.125 58.9567 147.094 42.5612 133.971 21.5707C126.2 9.13906 111.784 4.71576 106.229 3.00905C92.2476 -1.28296 70.9592 -1.89899 65.2584 7.30611C63.4153 10.2701 64.9503 11.4517 63.4759 14.1885Z" fill="#F4F7FA"/>
    <path d="M27.0983 77.1033C26.0531 78.7595 25.0078 80.0016 23.9121 81.572C32.0316 83.0161 39.5906 85.8994 47.8161 87.3738C44.8117 77.0225 40.8529 71.8468 46.8315 60.8744C49.6389 55.724 56.6728 46.3977 55.7487 40.5C54.6934 33.7792 49.947 34.2841 52.4262 29.0883C56.3042 20.9637 54.345 10.9204 41.8477 11.6879C29.5069 12.4454 22.4377 43.7417 26.9367 53.8254C29.0423 63.1719 32.5567 68.4586 27.0983 77.1033Z" fill="url(#paint0_linear_387_18925)"/>
    <path d="M36.665 83.6315L36.5084 83.6264C36.6044 80.5867 36.468 77.5015 36.3317 74.5173L36.2812 73.3862C36.1752 70.9877 36.1247 68.8417 36.0792 66.9482C36.054 65.8828 36.0287 64.8729 35.9984 63.8983C35.9025 60.9141 35.8268 58.8237 35.7914 57.7885C35.7813 57.4401 35.7712 57.2129 35.7662 57.1069C35.5036 48.9318 38.1596 37.7221 39.5835 31.6981C39.7401 31.0468 39.8764 30.461 39.9925 29.9611C41.977 21.3468 43.0171 12.1417 43.0727 2.6084H43.2292C43.1737 12.1518 42.1385 21.367 40.1491 29.9965C40.0329 30.4964 39.8966 31.0821 39.7401 31.7335C38.3161 37.7474 35.6652 48.9419 35.9277 57.1018C35.9328 57.2078 35.9378 57.4351 35.953 57.7835C35.9883 58.8186 36.0641 60.9091 36.16 63.8933C36.1903 64.8678 36.2156 65.8777 36.2408 66.9431C36.2862 68.8367 36.3367 70.9827 36.4428 73.3761L36.4933 74.5072C36.6246 77.4965 36.7609 80.5867 36.665 83.6315Z" fill="#FCFDFE"/>
    <path d="M36.0589 68.5133H35.9023C35.9882 63.1003 38.2655 56.7784 42.4918 50.2293C46.0113 44.7708 50.7982 39.3528 55.6153 35.3537L55.7163 35.4749C50.9092 39.4639 46.1375 44.8718 42.6282 50.3151C38.4119 56.839 36.1447 63.1306 36.0589 68.5133Z" fill="#FCFDFE"/>
    <path d="M39.4859 32.7332L39.3496 32.6625C41.531 28.522 44.2425 24.6289 46.8733 20.8671C48.6709 18.2919 50.529 15.6308 52.2004 12.9092L52.3317 12.99C50.6553 15.7167 48.7971 18.3828 46.9995 20.958C44.3738 24.7147 41.6572 28.6028 39.4859 32.7332Z" fill="#FCFDFE"/>
    <path d="M36.4172 47.559C35.377 41.131 31.0749 32.9964 27.207 30.1536L27.2979 30.0273C31.1961 32.8954 35.5285 41.0755 36.5687 47.5337L36.4172 47.559Z" fill="#FCFDFE"/>
    <path d="M28.4012 53.6237C27.1186 63.5812 33.183 63.4045 40.9288 63.5206C36.7479 71.8825 32.981 80.1837 29.1889 88.6163C24.0082 88.4648 20.2968 88.2578 19.4788 82.0167C18.5548 74.9576 18.2569 70.8524 11.4906 66.8936C4.7244 62.9349 1.02821 55.7142 5.84537 49.5287C10.915 43.0199 7.7995 31.2447 15.8079 27.9727C29.7595 22.2719 29.7342 43.2573 28.4012 53.6237Z" fill="url(#paint1_linear_387_18925)"/>
    <path d="M32.3582 77.2281C26.3393 71.2748 21.4918 66.1446 18.4016 58.9239C15.4426 52.0113 15.0589 45.5177 17.114 37.2114C18.1794 32.9042 18.4571 29.6979 18.755 25.2998L18.9116 25.3099C18.6137 29.7181 18.3359 32.9295 17.2655 37.2468C15.2204 45.5177 15.6042 51.981 18.548 58.8583C21.6282 66.0537 26.4655 71.1739 32.4693 77.117L32.3582 77.2281Z" fill="#FCFDFE"/>
    <path d="M19.2898 85.6812L19.209 85.5499C21.5721 84.0755 23.9352 83.0252 26.4297 82.3435C27.7072 81.9951 28.9342 81.879 30.3783 81.8184L30.3834 81.9749C28.9493 82.0405 27.7324 82.1516 26.4701 82.495C23.9908 83.1767 21.6428 84.2168 19.2898 85.6812Z" fill="#FCFDFE"/>
    <path d="M20.5375 63.2057C15.9981 58.7016 9.45905 55.7527 2.11719 54.9145L2.13738 54.758C9.5146 55.6012 16.089 58.5602 20.6486 63.0946L20.5375 63.2057Z" fill="#FCFDFE"/>
    <path d="M15.9679 46.4014L15.8164 46.3711C15.9729 45.6339 18.9319 40.0291 21.6434 35.0301C24.3701 30.011 27.3695 24.6485 27.6725 24.3506L27.7835 24.4617C27.526 24.7091 24.8347 29.4859 21.7848 35.1008C19.0682 40.0947 16.1194 45.6794 15.9679 46.4014Z" fill="#FCFDFE"/>
    <path d="M113.305 80.825C113.305 106.774 92.2738 128.774 65.4462 130.001C37.5834 131.274 14.1895 109.814 14.1895 82.0217C14.1895 54.2297 37.5784 32.2041 65.4462 32.805C92.2738 33.3857 113.305 54.876 113.305 80.825Z" fill="url(#paint2_linear_387_18925)"/>
    <path d="M115.511 80.825C115.511 106.774 94.4799 128.774 67.6522 130.001C39.7895 131.274 16.3955 109.814 16.3955 82.0217C16.3955 54.2297 39.7845 32.2041 67.6522 32.805C94.4799 33.3857 115.511 54.876 115.511 80.825Z" fill="url(#paint3_linear_387_18925)"/>
    <path d="M112.743 80.8607C112.743 105.31 92.9089 126.003 67.6466 127.103C41.4754 128.25 19.5508 108.062 19.5508 81.9817C19.5508 55.9014 41.4754 35.1887 67.6466 35.6987C92.9089 36.1986 112.743 56.4114 112.743 80.8607Z" fill="url(#paint4_linear_387_18925)"/>
    <path d="M80.3884 90.9287C77.8536 90.9287 75.5763 92.0446 74.0262 93.8169L49.2789 82.4052C49.3698 81.9053 49.4203 81.3953 49.4203 80.8702C49.4203 80.3148 49.3648 79.7694 49.2638 79.2443L73.7787 67.6306C75.3289 69.5746 77.7122 70.8168 80.3935 70.8168C85.0642 70.8168 88.8513 67.0297 88.8513 62.359C88.8513 57.6883 85.0642 53.9012 80.3935 53.9012C75.7228 53.9012 71.9357 57.6883 71.9357 62.359C71.9357 62.6367 71.9508 62.9094 71.9761 63.177L47.0471 74.9927C45.507 73.4021 43.3559 72.4124 40.9676 72.4124C36.2968 72.4124 32.5098 76.1995 32.5098 80.8702C32.5098 85.5409 36.2968 89.328 40.9676 89.328C43.3862 89.328 45.5676 88.308 47.1127 86.6821L72.0266 98.1695C71.971 98.5684 71.9357 98.9724 71.9357 99.3865C71.9357 104.057 75.7228 107.844 80.3935 107.844C85.0642 107.844 88.8513 104.057 88.8513 99.3865C88.8462 94.7157 85.0592 90.9287 80.3884 90.9287Z" fill="white"/>
    <path opacity="0.3" d="M46.0549 60.349C44.4088 54.9764 44.4845 46.8215 52.5181 34.7686C31.7902 40.742 16.3945 59.536 16.3945 82.0211C16.3945 109.813 39.7835 131.273 67.6513 130.001C77.9268 129.531 87.3339 126.022 95.0191 120.457C94.7818 113.045 93.166 104.93 88.6316 97.4471C76.1646 76.8757 51.2255 77.1989 46.0549 60.349Z" fill="url(#paint5_linear_387_18925)"/>
    <path d="M109.374 128.377C99.1082 129.114 90.5898 121.257 90.5898 110.85C90.5898 100.443 99.1082 91.6978 109.374 91.3595C119.422 91.0313 127.446 98.9134 127.446 108.921C127.446 118.934 119.427 127.655 109.374 128.377Z" fill="url(#paint6_linear_387_18925)"/>
    <path d="M110.624 128.796C100.358 129.533 91.8398 121.676 91.8398 111.269C91.8398 100.862 100.358 92.1168 110.624 91.7784C120.672 91.4502 128.696 99.3324 128.696 109.34C128.696 119.353 120.677 128.074 110.624 128.796Z" fill="#D8DEE8"/>
    <path d="M127.476 109.405C127.476 118.752 120.008 126.856 110.626 127.517C101.057 128.189 93.1602 120.888 93.1602 111.198C93.1602 101.508 101.057 93.3782 110.626 93.05C120.008 92.7319 127.476 100.054 127.476 109.405Z" fill="white"/>
    <path d="M108.568 98.4445C105.528 98.5506 102.65 100.424 101.368 102.858C99.8276 105.786 101.883 107.064 100.878 111.719C99.9538 116.006 97.7926 116.87 98.1461 119.622C98.54 122.636 101.489 124.378 102.66 125.065C107.912 128.16 116.117 127.499 120.288 122.808C120.636 122.414 123.514 119.177 122.737 116.415C122.04 113.946 119.061 114.118 118.445 111.543C117.915 109.326 119.95 108.468 119.753 105.216C119.712 104.58 119.535 101.57 117.268 100.318C115.758 99.4847 114.102 99.8634 113.496 100.03C112.769 99.4948 110.992 98.3637 108.568 98.4445Z" fill="url(#paint7_linear_387_18925)"/>
    <path d="M93.1621 123.04C93.1621 123.04 108.507 113.097 127.473 120.828C127.473 120.828 125.054 128.655 110.623 130.084C95.7474 131.558 93.1621 123.04 93.1621 123.04Z" fill="url(#paint8_linear_387_18925)"/>
    <path d="M107.91 110.427L107.335 114.744C107.138 116.219 106.133 117.501 104.734 118.067L100.059 119.945C100.059 119.945 109.011 123.687 120.317 118.652L115.161 117.183C113.697 116.724 112.702 115.401 112.637 113.83L112.49 110.185L107.91 110.427Z" fill="url(#paint9_linear_387_18925)"/>
    <path d="M114.884 106.287C114.884 109.902 112.707 113.906 110.011 114.058C107.3 114.209 105.088 110.412 105.088 106.761C105.088 103.111 107.3 101.02 110.011 100.904C112.707 100.783 114.884 102.671 114.884 106.287Z" fill="url(#paint10_linear_387_18925)"/>
    <path d="M112.168 103.145C110.703 103.287 108.486 103.741 106.946 105.428C104.366 108.26 105.593 112.487 104.442 112.805C103.417 113.088 101.836 110.119 101.862 106.761C101.882 103.953 102.841 100.6 105.341 99.6613C106.81 99.1109 107.239 99.8885 111.976 100.156C114.733 100.313 113.652 101.595 114.273 102.029C117.025 103.958 116.677 110.714 115.197 110.881C114.495 110.962 113.526 109.255 112.168 103.145Z" fill="url(#paint11_linear_387_18925)"/>
    <path d="M119.599 82.2849C109.667 82.603 101.432 74.5391 101.432 64.3039C101.432 54.0738 109.667 45.8028 119.599 45.8735C129.325 45.9391 137.091 54.0081 137.091 63.8596C137.091 73.711 129.325 81.9769 119.599 82.2849Z" fill="url(#paint12_linear_387_18925)"/>
    <path d="M120.851 82.2849C110.919 82.603 102.684 74.5391 102.684 64.3039C102.684 54.0738 110.919 45.8028 120.851 45.8735C130.577 45.9391 138.343 54.0081 138.343 63.8596C138.343 73.711 130.577 81.9769 120.851 82.2849Z" fill="#D8DEE8"/>
    <path d="M137.156 63.8799C137.156 73.08 129.925 80.7551 120.851 81.0328C111.596 81.3156 103.961 73.8223 103.961 64.294C103.961 54.7657 111.596 47.0805 120.851 47.136C129.925 47.1815 137.156 54.6799 137.156 63.8799Z" fill="white"/>
    <path d="M103.963 75.9768C103.963 75.9768 118.803 66.802 137.158 75.1588C137.158 75.1588 134.82 82.7633 120.853 83.5964C106.457 84.4548 103.963 75.9768 103.963 75.9768Z" fill="url(#paint13_linear_387_18925)"/>
    <path d="M118.223 64.1112L117.667 68.3376C117.506 71.0239 114.9 72.0843 114.9 72.0843C117.96 75.7148 123.813 75.4371 125.858 71.8873C124.444 71.3824 122.858 69.196 122.798 67.6458L122.656 64.0557L118.223 64.1112Z" fill="url(#paint14_linear_387_18925)"/>
    <path d="M124.968 60.314C124.968 63.8688 122.862 67.7215 120.252 67.7669C117.626 67.8124 115.49 63.9849 115.49 60.3948C115.49 56.8046 117.626 54.8353 120.252 54.8252C122.867 54.8151 124.968 56.7541 124.968 60.314Z" fill="url(#paint15_linear_387_18925)"/>
    <path d="M115.355 61.2985C115.618 61.253 115.881 61.2076 116.143 61.1672C116.022 60.8743 115.527 59.5766 116.143 58.4355C116.734 57.3397 118.133 56.7994 119.198 56.8651C120.41 56.9408 121.132 57.5064 121.738 57.062C122.081 56.8146 122.187 56.3652 122.228 56.0168C122.253 56.239 122.314 56.5722 122.475 56.9358C122.925 57.981 123.692 58.1981 124.106 58.8899C124.384 59.3545 124.566 60.1371 124.106 61.5156C124.338 61.5005 124.566 61.4853 124.798 61.4651C125.04 60.6875 125.333 59.5918 125.515 58.2486C125.782 56.2541 125.969 54.8807 125.207 54.2141C125.055 54.0829 124.379 53.5527 122.768 54.0526C122.389 53.6536 121.591 52.9215 120.369 52.5529C119.945 52.4266 117.845 51.7955 115.976 53.1639C114.709 54.098 113.714 55.835 114.032 57.269C114.199 58.0265 114.664 58.3648 115.073 59.8341C115.234 60.4451 115.315 60.9703 115.355 61.2985Z" fill="url(#paint16_linear_387_18925)"/>
    <path d="M124.316 61.6315C124.316 61.6315 124.619 60.0713 125.538 60.2177C126.457 60.3641 125.139 62.9292 124.316 63.2423V61.6315Z" fill="url(#paint17_linear_387_18925)"/>
    <path d="M116.087 61.713C116.087 61.713 115.779 60.1426 114.84 60.3093C113.901 60.4708 115.244 63.041 116.087 63.344V61.713Z" fill="url(#paint18_linear_387_18925)"/>
    <path d="M89.1622 47.4392C78.8412 47.3584 70.2773 38.7997 70.2773 28.3675C70.2773 17.9354 78.8412 9.84625 89.1622 10.3259C99.2661 10.8006 107.33 19.3442 107.33 29.3825C107.33 39.4207 99.2611 47.52 89.1622 47.4392Z" fill="url(#paint19_linear_387_18925)"/>
    <path d="M90.4083 47.4392C80.0873 47.3584 71.5234 38.7997 71.5234 28.3675C71.5234 17.9354 80.0873 9.84625 90.4083 10.3259C100.512 10.8006 108.576 19.3442 108.576 29.3825C108.576 39.4207 100.512 47.52 90.4083 47.4392Z" fill="#D8DEE8"/>
    <path d="M107.344 29.3478C107.344 38.7195 99.8357 46.2482 90.4084 46.1624C80.7893 46.0715 72.8516 38.1237 72.8516 28.4035C72.8516 18.6884 80.7893 11.1698 90.4084 11.6091C99.8407 12.0333 107.344 19.976 107.344 29.3478Z" fill="white"/>
    <path d="M77.6078 40.296C76.6787 37.5996 80.1679 36.6806 80.6122 30.4143C80.6425 29.9901 81.2333 21.4263 82.5512 19.7802C82.7279 19.5631 82.9198 19.3863 82.9198 19.3863C83.5762 18.8763 84.5962 18.9369 88.2267 17.4221C91.3372 16.1244 91.1605 16.1598 91.5594 16.0891C93.8972 15.6599 97.3612 17.8008 98.4973 20.6588C99.5173 23.2239 98.2953 25.4103 100.123 29.9144C102.39 36.3979 103.527 39.6396 102.501 41.6745C99.3809 47.8601 79.6882 46.3452 77.6078 40.296Z" fill="url(#paint20_linear_387_18925)"/>
    <path d="M72.8555 40.2759C72.8555 40.2759 88.2815 31.5303 107.348 40.8011C107.348 40.8011 104.919 48.451 90.4123 48.7337C75.4559 49.0266 72.8555 40.2759 72.8555 40.2759Z" fill="url(#paint21_linear_387_18925)"/>
    <path d="M87.6813 28.8086L87.1057 33.0905C86.9088 34.5498 85.8989 35.7617 84.4901 36.2111L79.7891 37.7208C79.7891 37.7208 88.7871 42.1896 100.153 38.044L94.9727 36.1606C93.5033 35.5849 92.4985 34.1812 92.4379 32.5957L92.2914 28.9298L87.6813 28.8086Z" fill="url(#paint22_linear_387_18925)"/>
    <path d="M94.694 25.2133C94.694 28.8388 92.5076 32.6814 89.7961 32.6157C87.0694 32.5501 84.8477 28.5661 84.8477 24.9053C84.8477 21.2444 87.0694 19.3257 89.7961 19.4266C92.5076 19.5276 94.694 21.5878 94.694 25.2133Z" fill="url(#paint23_linear_387_18925)"/>
    <path d="M84.6804 27.2633C85.15 27.2532 84.4734 23.4308 86.2912 22.426C87.498 21.7595 89.5986 22.4563 90.7801 23.7287C92.6383 25.7384 91.5981 28.5257 93.0069 29.1619C93.9007 29.5659 95.0974 28.7933 95.668 28.2177C97.4555 26.4201 97.208 22.5068 95.0974 20.2446C93.4159 18.4369 91.1285 18.3056 90.5882 18.2905C87.4778 18.2047 84.6249 20.4214 83.9684 23.1228C83.4686 25.1931 84.332 27.2684 84.6804 27.2633Z" fill="url(#paint24_linear_387_18925)"/>
    <defs>
        <linearGradient id="paint0_linear_387_18925" x1="43.5083" y1="105.568" x2="32.4584" y2="-29.1683" gradientUnits="userSpaceOnUse">
            <stop stop-color="#AA80F9"/>
            <stop offset="0.9964" stop-color="#6165D7"/>
        </linearGradient>
        <linearGradient id="paint1_linear_387_18925" x1="11.2453" y1="40.7218" x2="52.4601" y2="99.8942" gradientUnits="userSpaceOnUse">
            <stop offset="0.00359712" stop-color="#E38DDD"/>
            <stop offset="1" stop-color="#9571F6"/>
        </linearGradient>
        <linearGradient id="paint2_linear_387_18925" x1="28.8491" y1="148.069" x2="103.597" y2="5.17779" gradientUnits="userSpaceOnUse">
            <stop stop-color="#444B8C"/>
            <stop offset="0.9964" stop-color="#26264F"/>
        </linearGradient>
        <linearGradient id="paint3_linear_387_18925" x1="31.0547" y1="148.069" x2="105.802" y2="5.17778" gradientUnits="userSpaceOnUse">
            <stop stop-color="#FFC444"/>
            <stop offset="0.9964" stop-color="#F36F56"/>
        </linearGradient>
        <linearGradient id="paint4_linear_387_18925" x1="92.4231" y1="52.3121" x2="-37.6803" y2="196.236" gradientUnits="userSpaceOnUse">
            <stop stop-color="#FFC444"/>
            <stop offset="0.9964" stop-color="#F36F56"/>
        </linearGradient>
        <linearGradient id="paint5_linear_387_18925" x1="16.3953" y1="82.4134" x2="95.0189" y2="82.4134" gradientUnits="userSpaceOnUse">
            <stop stop-color="#FFC444"/>
            <stop offset="0.9964" stop-color="#F36F56"/>
        </linearGradient>
        <linearGradient id="paint6_linear_387_18925" x1="90.5903" y1="109.887" x2="127.447" y2="109.887" gradientUnits="userSpaceOnUse">
            <stop stop-color="#444B8C"/>
            <stop offset="0.9964" stop-color="#26264F"/>
        </linearGradient>
        <linearGradient id="paint7_linear_387_18925" x1="116.21" y1="97.6776" x2="111.116" y2="113.47" gradientUnits="userSpaceOnUse">
            <stop stop-color="#AB316D"/>
            <stop offset="1" stop-color="#792D3D"/>
        </linearGradient>
        <linearGradient id="paint8_linear_387_18925" x1="93.1632" y1="124.07" x2="127.476" y2="124.07" gradientUnits="userSpaceOnUse">
            <stop stop-color="#FF9085"/>
            <stop offset="1" stop-color="#FB6FBB"/>
        </linearGradient>
        <linearGradient id="paint9_linear_387_18925" x1="110.144" y1="111.687" x2="110.21" y2="124.502" gradientUnits="userSpaceOnUse">
            <stop offset="0.003597" stop-color="#F36F56"/>
            <stop offset="1" stop-color="#FFC444"/>
        </linearGradient>
        <linearGradient id="paint10_linear_387_18925" x1="111.96" y1="93.2594" x2="109.008" y2="113.153" gradientUnits="userSpaceOnUse">
            <stop offset="0.003597" stop-color="#F36F56"/>
            <stop offset="1" stop-color="#FFC444"/>
        </linearGradient>
        <linearGradient id="paint11_linear_387_18925" x1="112.491" y1="96.3888" x2="107.229" y2="112.701" gradientUnits="userSpaceOnUse">
            <stop stop-color="#AB316D"/>
            <stop offset="1" stop-color="#792D3D"/>
        </linearGradient>
        <linearGradient id="paint12_linear_387_18925" x1="101.432" y1="64.0855" x2="137.089" y2="64.0855" gradientUnits="userSpaceOnUse">
            <stop stop-color="#444B8C"/>
            <stop offset="0.9964" stop-color="#26264F"/>
        </linearGradient>
        <linearGradient id="paint13_linear_387_18925" x1="103.96" y1="77.6511" x2="137.157" y2="77.6511" gradientUnits="userSpaceOnUse">
            <stop stop-color="#AB316D"/>
            <stop offset="1" stop-color="#792D3D"/>
        </linearGradient>
        <linearGradient id="paint14_linear_387_18925" x1="120.342" y1="65.4945" x2="120.406" y2="77.7756" gradientUnits="userSpaceOnUse">
            <stop offset="0.003597" stop-color="#F36F56"/>
            <stop offset="1" stop-color="#FFC444"/>
        </linearGradient>
        <linearGradient id="paint15_linear_387_18925" x1="122.15" y1="48.5516" x2="119.05" y2="67.697" gradientUnits="userSpaceOnUse">
            <stop offset="0.003597" stop-color="#F36F56"/>
            <stop offset="1" stop-color="#FFC444"/>
        </linearGradient>
        <linearGradient id="paint16_linear_387_18925" x1="120.523" y1="52.5193" x2="119.006" y2="61.8906" gradientUnits="userSpaceOnUse">
            <stop stop-color="#444B8C"/>
            <stop offset="0.9964" stop-color="#26264F"/>
        </linearGradient>
        <linearGradient id="paint17_linear_387_18925" x1="127.002" y1="49.3484" x2="123.911" y2="68.4327" gradientUnits="userSpaceOnUse">
            <stop offset="0.003597" stop-color="#F36F56"/>
            <stop offset="1" stop-color="#FFC444"/>
        </linearGradient>
        <linearGradient id="paint18_linear_387_18925" x1="117.602" y1="47.8172" x2="114.496" y2="67.0004" gradientUnits="userSpaceOnUse">
            <stop offset="0.003597" stop-color="#F36F56"/>
            <stop offset="1" stop-color="#FFC444"/>
        </linearGradient>
        <linearGradient id="paint19_linear_387_18925" x1="70.2761" y1="28.8734" x2="107.326" y2="28.8734" gradientUnits="userSpaceOnUse">
            <stop stop-color="#444B8C"/>
            <stop offset="0.9964" stop-color="#26264F"/>
        </linearGradient>
        <linearGradient id="paint20_linear_387_18925" x1="113.16" y1="-8.38754" x2="69.2659" y2="74.7399" gradientUnits="userSpaceOnUse">
            <stop stop-color="#AB316D"/>
            <stop offset="1" stop-color="#792D3D"/>
        </linearGradient>
        <linearGradient id="paint21_linear_387_18925" x1="90.1202" y1="40.2371" x2="88.4516" y2="70.0638" gradientUnits="userSpaceOnUse">
            <stop stop-color="#444B8C"/>
            <stop offset="0.9964" stop-color="#26264F"/>
        </linearGradient>
        <linearGradient id="paint22_linear_387_18925" x1="89.929" y1="30.2772" x2="89.9947" y2="43.0233" gradientUnits="userSpaceOnUse">
            <stop offset="0.003597" stop-color="#F36F56"/>
            <stop offset="1" stop-color="#FFC444"/>
        </linearGradient>
        <linearGradient id="paint23_linear_387_18925" x1="91.7306" y1="11.8829" x2="88.793" y2="31.6802" gradientUnits="userSpaceOnUse">
            <stop offset="0.003597" stop-color="#F36F56"/>
            <stop offset="1" stop-color="#FFC444"/>
        </linearGradient>
        <linearGradient id="paint24_linear_387_18925" x1="98.8054" y1="8.63675" x2="82.1764" y2="40.1289" gradientUnits="userSpaceOnUse">
            <stop stop-color="#AB316D"/>
            <stop offset="1" stop-color="#792D3D"/>
        </linearGradient>
    </defs>
</svg>
