<svg width="16" height="20" viewBox="0 0 16 20" fill="none" xmlns="http://www.w3.org/2000/svg">
    <path d="M13.997 8.99146L13.2812 7.81261L11.5761 7.96004H11.4498C10.9446 7.96004 10.4814 7.68632 10.2078 7.26534L9.47083 6.00217L7.74453 5.89688C7.61824 5.89688 7.51296 5.87589 7.40767 5.83374C6.1445 10.1493 4.2078 14.6754 0.439612 17.8542C-0.549811 18.6752 0.27118 20.275 1.5132 19.9593C7.68168 18.4015 11.3025 15.2227 14.5234 9.49671C14.3129 9.37042 14.1234 9.20199 13.9971 8.99155L13.997 8.99146Z" fill="#FF1E00"/>
    <path d="M13.9759 3.4549C14.0391 3.32862 14.0812 3.22333 14.1444 3.09705C14.5444 2.42332 15.0495 1.8129 15.6391 1.34977L15.6601 1.32877C15.9548 1.0972 16.0389 0.67621 15.8495 0.360324C15.6389 0.00246627 15.1758 -0.10281 14.818 0.10775C13.9548 0.634039 13.2391 1.32874 12.6496 2.10761C12.5022 2.29704 12.3549 2.50763 12.2287 2.71803C9.47094 1.93916 8.06045 3.43374 7.49206 4.25475C7.34463 4.46533 7.49206 4.76003 7.76577 4.78104L9.91307 4.90733C10.0184 4.90733 10.1236 4.97047 10.1868 5.07576L11.1552 6.69677C11.2184 6.80205 11.3447 6.8652 11.4709 6.8652L13.6392 6.67577C13.7655 6.65477 13.8918 6.71791 13.955 6.8442L14.9234 8.42306C15.0708 8.65464 15.4076 8.63364 15.5129 8.40206C16.0391 7.34949 16.7127 5.03374 13.976 3.45495L13.9759 3.4549Z" fill="#FF1E00"/>
</svg>
